<svg width="28" height="28" viewBox="0 0 28 28" fill="none" xmlns="http://www.w3.org/2000/svg">
<path d="M24.0892 3.12012L15.3447 9.61478L16.9618 5.78302L24.0892 3.12012Z" fill="#E2761B" stroke="#E2761B" stroke-width="0.0878845" stroke-linecap="round" stroke-linejoin="round"/>
<path d="M3.90179 3.12012L12.576 9.6763L11.038 5.78302L3.90179 3.12012ZM20.9426 18.1747L18.6137 21.7428L23.5967 23.1138L25.0292 18.2538L20.9426 18.1747ZM2.979 18.2538L4.40273 23.1138L9.38578 21.7428L7.05684 18.1747L2.979 18.2538Z" fill="#E4761B" stroke="#E4761B" stroke-width="0.0878845" stroke-linecap="round" stroke-linejoin="round"/>
<path d="M9.10488 12.1453L7.71631 14.2457L12.6642 14.4654L12.4884 9.14843L9.10488 12.1453ZM18.8864 12.1453L15.4589 9.08691L15.3447 14.4654L20.2838 14.2457L18.8864 12.1453ZM9.38611 21.7423L12.3566 20.2922L9.79038 18.2884L9.38611 21.7423ZM15.6347 20.2922L18.614 21.7423L18.2009 18.2884L15.6347 20.2922Z" fill="#E4761B" stroke="#E4761B" stroke-width="0.0878845" stroke-linecap="round" stroke-linejoin="round"/>
<path d="M18.6141 21.7426L15.6348 20.2925L15.8721 22.2347L15.8457 23.0521L18.6141 21.7426ZM9.38623 21.7426L12.1546 23.0521L12.137 22.2347L12.3567 20.2925L9.38623 21.7426Z" fill="#D7C1B3" stroke="#D7C1B3" stroke-width="0.0878845" stroke-linecap="round" stroke-linejoin="round"/>
<path d="M12.1986 17.0058L9.72021 16.2763L11.4691 15.4766L12.1986 17.0058ZM15.793 17.0058L16.5225 15.4766L18.2802 16.2763L15.793 17.0058Z" fill="#233447" stroke="#233447" stroke-width="0.0878845" stroke-linecap="round" stroke-linejoin="round"/>
<path d="M9.38607 21.7426L9.80791 18.1745L7.05713 18.2536L9.38607 21.7426ZM18.1921 18.1745L18.6139 21.7426L20.9429 18.2536L18.1921 18.1745ZM20.2837 14.2461L15.3446 14.4658L15.8016 17.0057L16.5311 15.4765L18.2888 16.2762L20.2837 14.2461ZM9.72003 16.2762L11.4777 15.4765L12.1984 17.0057L12.6642 14.4658L7.71626 14.2461L9.72003 16.2762Z" fill="#CD6116" stroke="#CD6116" stroke-width="0.0878845" stroke-linecap="round" stroke-linejoin="round"/>
<path d="M7.71631 14.2461L9.79038 18.2888L9.72007 16.2762L7.71631 14.2461ZM18.2888 16.2762L18.2009 18.2888L20.2838 14.2461L18.2888 16.2762ZM12.6642 14.4658L12.1984 17.0057L12.7785 20.0025L12.9103 16.0565L12.6642 14.4658ZM15.3447 14.4658L15.1074 16.0477L15.2129 20.0025L15.8017 17.0057L15.3447 14.4658Z" fill="#E4751F" stroke="#E4751F" stroke-width="0.0878845" stroke-linecap="round" stroke-linejoin="round"/>
<path d="M15.8018 17.0058L15.213 20.0027L15.6348 20.2927L18.2011 18.2889L18.289 16.2764L15.8018 17.0058ZM9.72021 16.2764L9.79052 18.2889L12.3568 20.2927L12.7786 20.0027L12.1986 17.0058L9.72021 16.2764Z" fill="#F6851B" stroke="#F6851B" stroke-width="0.0878845" stroke-linecap="round" stroke-linejoin="round"/>
<path d="M15.8457 23.0522L15.8721 22.2348L15.6524 22.0415H12.3391L12.137 22.2348L12.1546 23.0522L9.38623 21.7427L10.353 22.5336L12.3128 23.8958H15.6788L17.6474 22.5336L18.6141 21.7427L15.8457 23.0522Z" fill="#C0AD9E" stroke="#C0AD9E" stroke-width="0.0878845" stroke-linecap="round" stroke-linejoin="round"/>
<path d="M15.6345 20.2925L15.2127 20.0024H12.7783L12.3564 20.2925L12.1367 22.2347L12.3389 22.0414H15.6521L15.8718 22.2347L15.6345 20.2925Z" fill="#161616" stroke="#161616" stroke-width="0.0878845" stroke-linecap="round" stroke-linejoin="round"/>
<path d="M24.458 10.0366L25.205 6.45094L24.0888 3.12012L15.6344 9.39507L18.8861 12.1459L23.4824 13.4905L24.5019 12.304L24.0625 11.9877L24.7656 11.3461L24.2207 10.9243L24.9237 10.3882L24.458 10.0366ZM2.79443 6.45094L3.54145 10.0366L3.06688 10.3882L3.76995 10.9243L3.23386 11.3461L3.93693 11.9877L3.49751 12.304L4.50818 13.4905L9.10454 12.1459L12.3563 9.39507L3.90178 3.12012L2.79443 6.45094Z" fill="#763D16" stroke="#763D16" stroke-width="0.0878845" stroke-linecap="round" stroke-linejoin="round"/>
<path d="M23.4825 13.4902L18.8861 12.1456L20.2835 14.246L18.2006 18.2887L20.9426 18.2535H25.0292L23.4825 13.4902ZM9.10455 12.1456L4.50819 13.4902L2.979 18.2535H7.05684L9.79005 18.2887L7.71598 14.246L9.10455 12.1456ZM15.3444 14.4657L15.6344 9.39477L16.9702 5.78271H11.038L12.3563 9.39477L12.6639 14.4657L12.7693 16.0652L12.7781 20.0024H15.2125L15.2301 16.0652L15.3444 14.4657Z" fill="#F6851B" stroke="#F6851B" stroke-width="0.0878845" stroke-linecap="round" stroke-linejoin="round"/>
</svg>
